<?xml version="1.0" encoding="UTF-8"?>
<!DOCTYPE svg PUBLIC "-//W3C//DTD SVG 1.1//EN" "http://www.w3.org/Graphics/SVG/1.1/DTD/svg11.dtd">
<!-- Creator: CorelDRAW -->
<svg xmlns="http://www.w3.org/2000/svg" xml:space="preserve" width="138px" height="27px" version="1.1" style="shape-rendering:geometricPrecision; text-rendering:geometricPrecision; image-rendering:optimizeQuality; fill-rule:evenodd; clip-rule:evenodd"
viewBox="0 0 138 27"
 xmlns:xlink="http://www.w3.org/1999/xlink"
 xmlns:xodm="http://www.corel.com/coreldraw/odm/2003">
 <defs>
  <style type="text/css">
   <![CDATA[
    .fil1 {fill:#06080A}
    .fil0 {fill:#FD0101}
   ]]>
  </style>
 </defs>
 <g id="Layer_x0020_1">
  <metadata id="CorelCorpID_0Corel-Layer"/>
  <path class="fil0" d="M42.45 21.88c-0.63,0 -1.57,-0.81 -1.57,-1.29 0,-1.62 0.51,-1.49 1.75,-2.53l4.05 -3.24c0.72,-0.51 1.46,-1.36 2.44,-1.18 1.89,0.34 2.03,4.12 1.51,5.86 -0.08,0.27 -0.27,0.61 -0.35,0.84 -0.88,2.55 -3.25,1.64 -3.25,0.25 0,-0.54 0.63,-1.65 0.71,-2.57 -0.83,0.2 -0.3,0.18 -1.3,0.98 -1.26,1.01 -2.51,2.88 -3.99,2.88zm-9.28 -6.14c0,-0.73 -0.02,-0.98 0.49,-1.51 0.96,-1 5.09,-0.83 6.17,0.13 0.03,0.03 0.12,0.11 0.15,0.13 0.69,0.64 0.62,0.92 0.62,1.96 0,0.73 -1.33,2.17 -1.99,2.73 -0.02,0.02 -0.05,0.05 -0.08,0.07l-2.04 1.67c-0.16,0.12 -0.06,0.04 -0.23,0.19l-1.28 1.01c-0.95,0.56 -1.92,1.18 -2.9,-0.16 -0.22,-0.3 -0.36,-0.74 -0.27,-1.14 0.24,-0.94 2.46,-2.12 3.48,-2.96 0.31,-0.26 0.64,-0.59 1.02,-0.69l-2.8 -0.63c-0.3,-0.41 -0.34,-0.34 -0.34,-0.8zm-4 0c0,0 1.66,1.3 -0.02,2.4 -1.34,0.88 -2.41,0.17 -2.98,0.17 -0.33,0 -0.67,0.43 -1.08,0.78 -0.02,0.02 -0.06,0.04 -0.08,0.06l-1.17 0.98c-0.41,0.33 -0.96,0.87 -1.62,1.19 -0.49,0.23 -1.17,0.18 -1.65,-0.27 -0.25,-0.23 -1.18,-1.51 -0.24,-2.29 0.78,-0.65 2.98,-1.87 3.41,-2.45 -0.12,-0.54 -0.54,-1.16 0.18,-2.11 0.64,-0.85 2,-0.47 2.82,-0.03 0.13,-0.36 0.24,-0.33 0.63,-0.66 0.02,-0.02 0.05,-0.05 0.07,-0.07 0.58,-0.51 1.15,-1.06 1.9,-1.32 0.2,-0.07 0.79,-0.18 1.18,0.12 0.33,0.25 0.11,0.03 0.31,0.41 0.04,0.06 0.24,0.54 0.24,0.55 0.1,0.3 0.05,0.65 -0.26,1.03l-0.75 0.68c-0.03,0.02 -0.06,0.04 -0.09,0.06l-0.8 0.77zm-4.86 -1.72l0.04 -0.04c0,0 -0.05,0.03 -0.04,0.04zm6.43 -7.71c0,2.12 -3.84,4.14 -4.72,4.14 -1.09,0 -1.45,-1.4 -1.18,-1.98 0.3,-0.65 1.87,-0.97 2.33,-1.59 -1.16,0 -0.96,-0.37 -1.72,-0.57 0,-1.32 -0.19,-2.5 2.41,-2.13 1.15,0.17 2.88,0.78 2.88,2.13zm14.29 -0.72c0,-0.51 0.13,-0.84 0.43,-1.14 0.63,-0.63 1.49,-0.41 2.25,-0.25 0.06,0.01 0.45,0.09 0.58,0.13l0.31 0.11c0.04,0.02 0.07,0.03 0.1,0.05l0.42 0.16c0.27,0.13 0.03,-0.02 0.27,0.15l0.52 0.49c0.92,0.95 0.26,2.13 -0.51,2.96l-0.35 0.38c-0.19,0.16 -0.22,0.16 -0.31,0.23l-0.39 0.36c-0.15,0.14 -0.18,0.15 -0.32,0.23 -1.19,0.69 -2.46,1.52 -3.28,0.56 -1.18,-1.38 0.13,-1.91 0.98,-2.43 0.2,-0.12 0.13,-0.07 0.37,-0.2 0.35,-0.19 0.44,-0.22 0.64,-0.5 -0.91,0 -1.71,-0.31 -1.71,-1.29zm-4.43 0.43c0,1.07 -0.76,1.46 -1.47,2.1l-1.2 0.95c-1.26,0.77 -2.59,2.22 -3.48,0.81 -0.65,-1.02 -0.55,-1.55 0.54,-2.32 0.25,-0.17 0.42,-0.29 0.69,-0.45 1.46,-0.88 0.58,-0.28 1.9,-1.39l0.32 -0.25c0.76,-0.58 1.39,-1.63 2.42,0.06 0.13,0.22 0.28,0.08 0.28,0.49zm28.4 21.48l0 -27c-0.27,-0.15 -67.88,-0.54 -69,0l0 27 69 0z"/>
  <path class="fil1" d="M108.55 16.06c-0.33,0 -0.57,-0.24 -0.57,-0.57 0,-0.41 0.49,-0.72 0.86,-0.72 1.35,0 0.78,1.29 -0.29,1.29zm-10.43 -0.15l-0.45 -0.54c0.58,-1 0.4,-0.68 1.02,-0.46 0.3,-0.43 0.8,-0.65 1.26,-1.03l2.09 -1.77c0.02,-0.02 0.05,-0.04 0.07,-0.06l0.62 -0.45c0.67,-0.41 0.4,-0.54 1.25,-0.54 1.67,0 1.04,2.41 0.05,3.62 -1.2,1.46 -2.66,1.43 -1.17,-0.6 0.31,-0.41 0.64,-0.83 0.69,-1.45l-1.2 0.94c-1.21,0.91 -2.67,2.21 -4.23,2.34zm6.29 -0.71c0,-1.3 1.91,-0.05 4.55,-3.45 0.1,-0.14 0.49,-0.57 0.67,-0.63 0.92,-0.3 1.25,1.23 -0.2,2.39 -0.54,0.42 -0.97,0.76 -1.55,1.16 -0.78,0.54 -3.47,2.03 -3.47,0.53zm9.86 -10.72c0,-0.44 -0.66,-0.99 -1.43,-0.99 -0.94,0 -3.71,2.15 -4.63,3.08 -0.03,0.02 -0.05,0.05 -0.07,0.07l-0.15 0.14c-0.16,0.16 -0.08,0.12 -0.3,0.28 0.3,-1.27 0.48,-2.53 -1.1,-3.33 -0.93,-0.48 -2.1,-0.23 -3.03,0.2 -1.09,0.5 -1.5,0.74 -2.41,1.59l-0.38 0.33c-0.02,0.02 -0.05,0.04 -0.08,0.06l-2.3 2.27c-0.02,0.03 -0.04,0.06 -0.06,0.08l-0.5 0.65c-0.83,1.09 -0.2,1.57 0.01,1.57 0.75,0 1.24,-0.74 1.67,-1.17 0.77,-0.77 0.96,-1.2 1.61,-1.25 0.16,1.85 2.68,1.55 3.97,1.11 0.58,-0.2 0.54,-0.39 1.17,-0.54l-0.56 0.86c-0.43,0.5 -0.7,0.62 -0.72,1.42 -1.42,-0.68 -2.32,0.01 -3.34,0.95l-1.99 1.73c-0.74,0.46 -0.66,0.61 -1.81,0.61 -0.28,0.41 -0.99,1.15 -0.26,1.82 1.03,0.94 3.08,-0.6 4.26,-1.39 -0.19,0.89 0.06,0.82 0.28,1.43 1.62,0 0.97,-0.33 2,-0.57 0.06,0.67 -0.15,0.23 0.28,0.57 0.6,0.49 1.32,0.2 1.87,0 0.85,-0.3 0.57,-0.27 1.14,-0.57 0.45,0.93 0.99,1.42 2.2,0.62 1.25,-0.82 -0.02,-1.64 -0.2,-1.91 0.28,-0.39 1.85,-1.53 1.41,-2.83 -0.36,-1.1 -1.52,-0.86 -2.13,-0.03 -0.14,0.18 -0.27,0.39 -0.41,0.58l-0.25 0.33c-0.73,0.82 -1.72,1.49 -2.91,1.52 0.35,-0.66 0.63,-1.8 0.15,-2.57 0.72,-0.34 -0.7,0.18 0.21,-0.04 0.34,-0.08 0.04,0.04 0.35,-0.11l1.69 -1.46c0.11,-0.09 0.11,-0.08 0.24,-0.18l2.1 -1.61c4.34,-2.81 2.9,-1.46 3.78,-1.86l0.43 -0.5c0.14,-0.3 0.2,-0.58 0.2,-0.96zm-11.01 4.58c-2.08,0 -1.58,-1.35 -1.85,-2l-2.37 2.06c-0.34,0.38 -0.69,0.8 -1.2,0.94 0.1,-1.24 2.22,-2.87 3.17,-3.82 3.87,-3.89 6.4,-2.01 6.4,-0.9 0,1.28 0.02,1.82 -1.43,2.87 -0.55,0.4 -1.75,0.85 -2.72,0.85zm10.29 -3.57c-1.03,-0.25 -2.44,0.98 -3.31,1.54 -0.43,0.27 -0.61,0.35 -1.04,0.68l-3.06 2.51c-0.58,0.58 -0.26,0.42 -0.73,0.55 0.28,-0.53 0.37,-0.56 0.71,-1 0.64,-0.82 0.3,-0.62 1.06,-1.37l3.41 -3.31c0.74,-0.53 1.65,-1.18 2.53,-1.18 0.35,0 0.72,0.33 0.72,0.86 0,0.51 -0.28,0.2 -0.29,0.72zm-30.57 16.57c0.09,-1.1 1.75,-2.47 1.78,-2.5 0.08,-0.08 0.21,-0.21 0.22,-0.21 0.02,-0.02 0.05,-0.05 0.08,-0.07 0.02,-0.02 0.05,-0.05 0.07,-0.07l0.73 -0.56c1.15,-0.86 3.14,-2.78 3.69,-0.74 -1.88,1 -4.19,2.04 -5.66,3.63 -0.13,0.15 -0.06,0.32 -0.91,0.52zm12.86 -11c1.41,0 1.85,-0.14 1.85,0.85 0,0.38 -1.23,1.27 -1.59,1.56 -1.8,1.45 -3.46,2.97 -4.85,4.86 -0.69,0.93 -2.58,2.51 -4.44,5.13 -0.81,1.14 -0.37,2.17 -1.12,2.17 -0.94,0 -1.01,-1.43 0.04,-2.82l0.96 -1.32c-2.16,1.14 -2.91,1.88 -4.64,3.21 -0.34,0.26 -0.28,0.31 -0.79,0.36 0.12,-1.38 3.68,-3.47 4.29,-4 -0.6,0.05 -0.47,0.16 -1,0.28 0.4,-0.6 1.62,-1 2.38,-1.34 0.69,-0.31 0.23,-0.14 0.97,-0.19 0.47,-0.03 0.68,-0.32 1.22,-1.04l6.29 -6.43c-1.41,0.33 -1.86,0.28 -1.86,-0.85 0.62,-0.17 1.26,-0.66 1.43,-1.29 0.79,0 1.16,0.19 0.86,0.86zm-10.15 10l-0.04 -0.05c0,0.01 0.03,0.06 0.04,0.05zm-3.07 1.28c-0.15,0.64 -0.22,0.45 -0.69,0.95 -0.26,0.27 -0.45,0.58 -0.81,0.78 0,0.47 0.04,0.2 -0.14,0.13 -0.11,0.6 -0.12,0.24 -0.1,0.72 0.01,0.24 0.05,0.23 0.11,0.53 0.89,0.1 0.97,-0.11 1.92,-0.89l1.07 -0.76 -0.03 0.01c0.21,-0.44 -0.19,-0.06 0.36,-0.43 0.34,-0.23 0.23,-0.15 0.65,-0.19 -0.12,0.43 -0.29,0.86 -0.6,1.17 0.43,1.45 0.3,0.88 0.86,1.7l0.96 0.03c0.81,-1.25 0.21,-1.01 0.91,-2.23 0.25,-0.44 0.94,-1.63 1.46,-1.76 0.01,-0.04 0.04,-0.13 0.05,-0.11 0,0 0.1,-0.29 0.63,-0.83l0.97 -1.02c0,0 0.13,-0.16 0.13,-0.16l2.19 -2.52c2.16,-2.45 4.95,-4.44 5.43,-5.01 0.65,-0.78 0.16,-1.56 -0.75,-1.76 -1.18,-0.26 -0.35,0.19 -1.05,-0.52 -0.4,-0.41 -0.56,-0.4 -1.31,-0.4 -1.07,1.59 -0.85,0.78 -1.46,1.4 -0.09,0.1 -0.32,0.48 -0.4,0.6 0.23,1 0.37,0.78 1.14,1.14l-1.1 1.05c-0.38,0.32 -2.28,2.63 -3.18,3.24 -0.65,-0.43 -0.93,-0.92 -1.74,-0.61 -0.97,0.36 -4.32,3.04 -5.12,4.33 -0.27,0.44 -0.51,0.67 -0.36,1.42zm1.79 -6.43c-1.64,0 -0.43,-2.43 -0.44,-3.72 0,-0.57 -0.11,-0.87 0.38,-1.05 0.98,-0.38 0.91,0.75 0.91,1.35 0,0.76 -0.42,0.59 -0.42,1.71 0.74,-0.2 1.81,-1.39 2.42,-1.86 0.64,-0.49 3.29,-2.75 3.29,-1.14 0,0.9 -1.09,1.04 -2.98,2.45 -0.69,0.51 -2.6,2.26 -3.16,2.26zm6.71 -5.28c0.13,-0.49 1.05,-1.47 1.46,-1.97 1.43,-1.76 1.36,-1.52 2.58,-2.71 0.61,-0.6 2.71,-2.04 3.25,-2.04 0.48,0 1,0.26 1,0.72 0,1.15 -0.26,0.36 -1.92,1.36 -1.66,1 -3.87,2.58 -5.33,3.82 -0.42,0.36 -0.5,0.67 -1.04,0.82zm-0.28 -0.29c-0.82,-0.19 -0.9,-0.31 -1.96,0.33 -0.39,0.23 -0.81,0.45 -1.15,0.71l-0.38 0.33c-0.41,0.38 -1.33,1.22 -1.8,1.35 0.92,-1.92 -0.7,-3.04 -1.77,-2.04 -0.42,0.39 -0.28,0.47 -0.24,1.04 0.1,1.51 -0.42,1.45 -0.42,3 0,0.63 0.58,1.28 1.14,1.28 1.14,0 3,-1.99 4.04,-2.68 0.97,-0.64 2.31,-1.28 2.57,-1.85 0.45,-0.99 -0.09,-0.19 1.08,-1.21 0.28,-0.25 0.57,-0.47 0.87,-0.7l2.24 -1.77c0.05,-0.03 0.23,-0.18 0.24,-0.19 1.06,-0.78 1.57,-0.95 2.38,-1.47 0.5,-0.31 0.24,0.09 0.44,-0.41l1.15 0c0.18,-0.69 0.81,-0.76 0.64,-1.49 -0.15,-0.63 -0.75,-1.08 -1.5,-1.08 -0.99,0 -3.52,2.01 -4.33,2.81 -0.38,0.39 -0.47,0.51 -0.79,0.92 -0.3,0.37 -0.6,0.59 -0.9,0.96l-1.03 1.26c-0.35,0.46 -0.41,0.41 -0.52,0.9zm15 -4.14c0,0.39 -1.1,1.59 -2.3,1.45 -0.84,-0.09 -1.14,-0.24 -0.18,-1.21 0.38,-0.37 0.81,-0.63 1.37,-0.74l0.38 -0.04c0.43,-0.01 0.73,0.07 0.73,0.54zm-3.57 1.14c0,1.69 3.99,0.51 3.99,-1.14 0,-2.29 -3.99,-0.22 -3.99,1.14zm-16.43 13.57l0.04 -0.04c-0.01,0 -0.06,0.03 -0.04,0.04zm0.28 -0.14l0.04 -0.04c0,0 -0.05,0.03 -0.04,0.04z"/>
 </g>
</svg>
